# xmcd CD database file
# Copyright (C) 1993-1998 Ti Kan
#
# Track frame offsets:
# 150
# 10547
# 22732
# 32495
# 42735
# 53277
# 63557
# 74205
# 82850
# 93687
# 104655
# 117600
#
# Disc length: 1719 seconds
#
# Revision: 0
# Processed by: cddbd v1.4b41PL1 Copyright (c) Steve Scherf et al.
# Submitted via: inCDius 1.1b8
#
DISCID=9c06b50c
DTITLE=Gene McDaniels - Gene McDaniels Golden Greats
DYEAR=1900
DGENRE=
TTITLE0=Tower Of Strength
TTITLE1=You Can Have Her
TTITLE2=A Tear
TTITLE3=The Puzzle
TTITLE4=Chip Chip
TTITLE5=Point Of No Return
TTITLE6=A Hundred Pounds Of Clay
TTITLE7=Whiplash
TTITLE8=Spanish Lace
TTITLE9=I Just Don't Know What To Do With Myself
TTITLE10=The Good Life
TTITLE11=That's Life
EXTD=
EXTT0=
EXTT1=
EXTT2=
EXTT3=
EXTT4=
EXTT5=
EXTT6=
EXTT7=
EXTT8=
EXTT9=
EXTT10=
EXTT11=
PLAYORDER=
